<?xml version="1.0" encoding="UTF-8" standalone="no"?>
<svg
   width="400"
   height="400"
   viewBox="0 0 400 400"
   fill="none"
   version="1.1"
   id="svg4"
   xmlns="http://www.w3.org/2000/svg"
   xmlns:svg="http://www.w3.org/2000/svg">
  <defs
     id="defs4" />
  <rect
     width="400"
     height="400"
     fill="#F8F4E3"
     id="rect1" />
  <circle
     cx="200"
     cy="200"
     r="180"
     stroke="#1A202C"
     stroke-width="10"
     id="circle1" />
  <path
     id="textPath"
     d="M 100, 200 a 100,100 0 1,1 200,0"
     fill="none" />
  <path
     d="m 96.665104,120.99976 9.768386,7.78674 3.60849,-4.52681 q 1.24179,-1.55781 1.13345,-2.81311 -0.11207,-1.28824 -1.95646,-3.14812 l 0.54054,-0.67811 8.41217,6.70566 -0.54054,0.67811 q -1.46246,-1.13581 -2.43275,-1.30981 -0.95568,-0.19232 -1.79689,0.18616 -0.84493,0.34555 -1.83837,1.59179 l -3.60849,4.52682 7.80738,6.22355 q 1.88769,1.50476 2.68241,1.74861 0.60427,0.18196 1.40166,-0.14154 1.08266,-0.45577 1.78391,-1.33548 l 0.71585,-0.89803 0.67811,0.54054 -8.50261,10.66642 -0.6781,-0.54055 0.70124,-0.8797 q 1.22718,-1.53948 0.8843,-2.95177 -0.23584,-0.90735 -2.47176,-2.68968 L 96.902431,126.94371 q -1.887698,-1.50475 -2.682416,-1.74861 -0.604272,-0.18196 -1.387049,0.12322 -1.068051,0.43744 -1.783906,1.33548 l -0.701246,0.8797 -0.678105,-0.54054 14.740771,-18.49212 5.65142,4.11531 -0.51133,0.64146 q -2.12092,-0.91138 -3.43864,-0.91274 -1.32144,-0.0343 -2.43306,0.60821 -1.09701,0.62417 -2.64559,2.56685 z m 43.127146,-13.89944 -10.0939,7.03694 1.09956,5.3476 q 0.40519,1.97462 0.92793,2.72445 0.41552,0.59602 1.29477,0.66875 0.88508,0.0401 2.8631,-1.13888 l 0.49594,0.71138 -8.20971,5.72338 -0.49593,-0.71138 q 1.43319,-1.42771 1.59217,-2.22424 0.33717,-1.60646 -0.44113,-5.26378 l -5.78749,-27.850311 0.67292,-0.469129 24.19427,15.36092 q 2.91881,1.85079 4.35278,2.02251 1.43979,0.13909 3.10261,-0.87729 l 0.49593,0.71138 -10.28616,7.17098 -0.49594,-0.71138 q 1.50373,-1.16261 1.73379,-1.98012 0.24928,-0.83092 -0.19304,-1.46539 -0.58977,-0.84596 -2.63218,-2.13633 z m -1.53021,-1.04746 -11.76731,-7.45326 2.80777,13.69938 z m 32.04804,-33.677257 -0.23219,-0.835524 10.83922,-3.012258 0.2322,0.835523 -1.15167,0.320053 q -1.80654,0.502043 -2.35709,2.284866 -0.27968,0.83182 0.42946,3.383554 l 3.45155,12.419945 q 1.28021,4.606671 1.06349,7.415702 -0.20041,2.780174 -2.37931,5.356086 -2.1626,2.54705 -6.76927,3.82726 -5.01315,1.39317 -8.09326,0.37606 -3.08011,-1.0171 -4.97986,-3.6515 -1.28113,-1.808957 -2.81864,-7.341478 l -3.32604,-11.968311 q -0.78444,-2.822715 -1.81955,-3.483758 -1.01252,-0.667318 -2.75131,-0.184102 l -1.15167,0.320052 -0.23219,-0.835523 13.23288,-3.677466 0.2322,0.835524 -1.17425,0.326328 q -1.89687,0.527145 -2.3772,1.949896 -0.33863,0.96983 0.37678,3.544146 l 3.70885,13.345796 q 0.49576,1.783955 1.45201,3.999433 0.97883,2.209203 2.19464,3.257893 1.21582,1.04868 3.05131,1.43864 1.85808,0.38369 4.20658,-0.26897 3.00337,-0.83464 5.01047,-2.803314 2.0071,-1.968672 2.3004,-4.239497 0.30962,-2.299682 -1.0459,-7.177334 l -3.44527,-12.397363 q -0.79699,-2.867878 -1.6301,-3.414778 -1.15681,-0.74885 -2.8956,-0.265633 z m 40.82603,10.529437 6.0327,10.657876 q 2.50925,4.420864 3.77979,5.645306 1.29568,1.202838 3.39018,1.478988 l -0.0655,0.86471 -13.60167,-1.03009 0.0655,-0.864712 q 1.35727,0.07928 2.03111,-0.128234 0.50671,-0.173167 0.84239,-0.570828 0.36082,-0.419262 0.39444,-0.863303 0.0407,-0.537523 -0.12891,-1.090976 -0.13351,-0.409689 -1.12963,-2.153956 l -4.75931,-8.540041 -7.28149,8.004233 q -1.15433,1.275847 -1.40006,1.727329 -0.24397,0.428112 -0.28113,0.918894 -0.0566,0.747859 0.5372,1.286428 0.59383,0.53857 2.36469,0.743196 l -0.0655,0.864711 -11.24125,-0.85133 0.0655,-0.864711 q 1.20075,-0.02659 2.09378,-0.33503 1.49499,-0.4979 2.88162,-1.42709 1.38663,-0.92919 3.23037,-2.928478 l 8.19363,-8.875339 -5.5479,-9.610463 q -2.26598,-3.908843 -3.95542,-5.188514 -1.68766,-1.303043 -3.99604,-1.548376 l 0.0655,-0.864712 14.65335,1.109738 -0.0655,0.864711 q -1.87496,-0.07148 -2.61678,0.412945 -0.71846,0.486195 -0.76801,1.140571 -0.0655,0.864712 0.93063,2.608978 l 4.31064,7.636392 6.17213,-6.701475 q 1.07714,-1.187675 1.32287,-1.639157 0.26911,-0.449713 0.30628,-0.940495 0.0372,-0.490782 -0.21496,-0.88595 -0.31339,-0.517331 -0.83676,-0.745003 -0.52159,-0.251044 -2.2025,-0.401848 l 0.0655,-0.864712 11.24125,0.85133 -0.0655,0.864712 q -1.33743,-0.03077 -2.20532,0.256068 -1.30272,0.441948 -2.42342,1.273754 -1.1207,0.831806 -3.22293,3.140583 z m 27.89326,23.83503 -0.28005,0.82072 -12.88756,-4.39759 0.28006,-0.82073 1.06472,0.36332 q 1.86326,0.63579 3.07704,-0.16349 0.77457,-0.52815 1.69799,-3.234318 l 6.63045,-19.431143 q 0.77961,-2.284712 0.74103,-3.115105 -0.0326,-0.630232 -0.58399,-1.264141 -0.79433,-0.865396 -1.85905,-1.228709 l -1.06472,-0.363312 0.28005,-0.820722 12.88755,4.397594 -0.28005,0.820722 -1.0869,-0.370882 q -1.84108,-0.628227 -3.05487,0.171052 -0.79675,0.520588 -1.72017,3.226752 l -6.63045,19.431142 q -0.77961,2.28471 -0.74102,3.11511 0.0326,0.63023 0.60616,1.27171 0.77216,0.85782 1.83688,1.22114 z m 34.0055,-17.303529 q 5.16852,3.401705 6.35708,9.823678 1.22103,6.415281 -2.64454,12.288591 -3.98155,6.04952 -10.42779,7.53075 -6.44624,1.48123 -11.86927,-2.08798 -5.48176,-3.60787 -6.65694,-9.96492 -1.1556,-6.34416 2.91614,-12.530719 4.16193,-6.323602 11.09762,-7.482701 6.02003,-1.004174 11.2277,2.423301 z m -1.3126,1.184354 q -3.56314,-2.345115 -7.4562,-1.1195 -4.84687,1.523777 -9.02169,7.866956 -4.2779,6.499799 -3.80432,11.833919 0.38158,4.06706 3.88599,6.37352 3.73934,2.46108 8.08688,1.14177 4.36711,-1.30642 8.50328,-7.59087 4.48406,-6.81304 4.00529,-11.926112 -0.40115,-4.079946 -4.19923,-6.579683 z m 36.61192,32.587045 -8.53408,6.92804 -0.54656,-0.67326 q 2.19061,-2.32175 2.95204,-4.35873 0.77619,-2.01879 0.36103,-4.27795 -0.41516,-2.25917 -1.77417,-3.93323 -1.53629,-1.89242 -3.70534,-2.18436 -2.15086,-0.30672 -3.62476,0.88981 -1.12818,0.91586 -1.421,2.45167 -0.44886,2.23606 0.71846,8.3223 0.95064,4.96404 0.96911,7.03204 0.0514,2.07143 -0.74854,3.83782 -0.78519,1.78458 -2.25909,2.98111 -2.80224,2.27488 -6.61286,1.74577 -3.77765,-0.52567 -6.55477,-3.94658 -0.87155,-1.07359 -1.47592,-2.15274 -0.36695,-0.63795 -1.25051,-2.87912 -0.8506,-2.23774 -1.23467,-2.71085 -0.3693,-0.45491 -0.86382,-0.50627 -0.47975,-0.0332 -1.43838,0.53373 l -0.54657,-0.67326 8.4613,-6.86895 0.54656,0.67326 q -2.2726,2.62981 -2.95096,4.5088 -0.66017,1.86422 -0.20412,4.21094 0.47082,2.36492 2.06619,4.33012 1.84649,2.27454 4.11103,2.60973 2.27931,0.35339 3.91698,-0.97609 0.90981,-0.7386 1.42421,-2.00146 0.52917,-1.24467 0.47304,-2.95002 -0.0302,-1.15282 -0.83549,-5.75186 -0.78708,-4.61381 -0.82481,-6.81711 -0.023,-2.1851 0.68944,-3.9106 0.71241,-1.72549 2.2409,-2.96634 2.65667,-2.1567 6.22174,-1.66976 3.58326,0.47216 6.13881,3.62012 1.59537,1.96521 2.41837,4.94988 0.37232,1.38829 0.71207,1.8068 0.38407,0.47311 0.89337,0.54267 0.54226,0.073 1.54521,-0.43933 z"
     id="text1"
     style="font-size:48px;font-family:'Times New Roman', Times, serif;text-anchor:middle;fill:#1a202c"
     aria-label="FAUXIOS" />
  <path
     d="M200 150 C 220 150 240 170 240 190 C 240 210 220 230 200 230 C 180 230 160 210 160 190 C 160 170 180 150 200 150 Z M 200 160 C 185 160 170 175 170 190 C 170 205 185 220 200 220 C 215 220 230 205 230 190 C 230 175 215 160 200 160 Z"
     fill="#1A202C"
     id="path1" />
  <path
     d="M200 230 C 200 250 180 270 160 270 C 140 270 130 250 140 230 C 150 210 170 210 180 230 C 190 250 200 250 200 230 Z"
     fill="#1A202C"
     id="path2" />
  <path
     d="M160 270 C 160 290 180 310 200 310 C 220 310 230 290 220 270 C 210 250 190 250 180 270 C 170 290 160 290 160 270 Z"
     fill="#1A202C"
     id="path3" />
  <path
     d="M200 150 L 205 140 L 215 155 L 210 145 L 220 160 L 200 150 Z"
     fill="#1A202C"
     id="path4" />
</svg>
