<svg width="32" height="32" viewBox="0 0 100 100" fill="none" xmlns="http://www.w3.org/2000/svg">
<path d="M50 20 C 60 20 70 30 70 40 C 70 50 60 60 50 60 C 40 60 30 50 30 40 C 30 30 40 20 50 20 Z M 50 25 C 42.5 25 35 32.5 35 40 C 35 47.5 42.5 55 50 55 C 57.5 55 65 47.5 65 40 C 65 32.5 57.5 25 50 25 Z" fill="#FFFFFF"/>
<path d="M50 60 C 50 70 40 80 30 80 C 20 80 15 70 20 60 C 25 50 35 50 40 60 C 45 70 50 70 50 60 Z" fill="#FFFFFF"/>
<path d="M30 80 C 30 90 40 100 50 100 C 60 100 65 90 60 80 C 55 70 45 70 40 80 C 35 90 30 90 30 80 Z" fill="#FFFFFF"/>
<path d="M50 20 L 52.5 15 L 57.5 22.5 L 55 17.5 L 60 25 L 50 20 Z" fill="#FFFFFF"/>
</svg>
